<svg xmlns="http://www.w3.org/2000/svg" viewBox="0 0 128 128"><path d="M43.13 99.21H27.7c-1.3 0-1.64-.39-1.61-1.65.09-3.57 0-7.13 0-10.7 0-2.13 0-2.13 2.07-2.13h26a10 10 0 005.08-1.1 6.49 6.49 0 003.62-6.11 6.42 6.42 0 00-3.83-5.83 9 9 0 00-4.14-1h-6.12c-.9 0-1.21-.29-1.2-1.21v-11c0-1 .35-1.27 1.3-1.26 2.27 0 4.54.06 6.81-.05a7.54 7.54 0 006.92-4.95 6.92 6.92 0 00-6.32-8.84c-3.75-.2-7.51-.07-11.26-.14-1.13 0-1 .72-1 1.41v28.14c0 .26 0 .65-.15.76-.35.26-.59-.15-.8-.34-2.42-2.16-4.82-4.33-7.23-6.5-2.84-2.59-5.75-5.2-8.66-7.71a3 3 0 01-1.09-2.52q.09-13.14 0-26.28c0-.95.22-1.34 1.21-1.34 10.2.07 20.39 0 30.58.19a26.89 26.89 0 0114 4c5.54 3.48 8.2 8.71 8.46 15.1.23 5.58-.73 10.91-4.52 15.34-.45.52-.16.77.13 1.17 5.14 7.1 5.83 14.8 2.56 22.75-2.46 5.94-7.58 8.86-13.51 10.52-4.7 1.3-9.52 1.31-14.34 1.29z"/><path d="M71.93 28.83c6.12-.21 11.92.39 17.35 3 7.92 3.83 12.29 10.16 12.54 19 .24 8.52.21 17.06.07 25.58-.18 11-6.32 18.58-17.06 21.51C80.92 99 75.06 99.49 72.05 99a26.91 26.91 0 005.12-3.67c4.71-4.49 6.69-10.15 6.75-16.5.09-9.87.12-19.75 0-29.62-.11-8.81-3.74-15.71-11.67-20a2.43 2.43 0 01-.32-.38z"/></svg>